# xmcd
#
# Track frame offsets:
#	150
#	15325
#	36266
#	53159
#	67511
#	83958
#	104329
#	120644
#	134487
#	150665
#
# Disc length: 2220 seconds
#
# Revision: 4
# Processed by: cddbd v1.5.2PL0 Copyright (c) Steve Scherf et al.
# Submitted via: EasyCDDAExtractor 16.0.6.1
#
DISCID=7608aa0a
DTITLE=Poco - C-122 Blue and Gray
DYEAR=1981
DGENRE=Country
TTITLE0=Glorybound
TTITLE1=Blue and Gray
TTITLE2=Streets of Paradise
TTITLE3=The Writing on the Wall
TTITLE4=Down on the River Again
TTITLE5=Please Wait for Me
TTITLE6=Widowmaker
TTITLE7=Here Comes That Girl Again
TTITLE8=Sometimes (We Are All We Got)
TTITLE9=The Land of Glory
EXTD=
EXTT0=
EXTT1=
EXTT2=
EXTT3=
EXTT4=
EXTT5=
EXTT6=
EXTT7=
EXTT8=
EXTT9=
PLAYORDER=
